<svg width="500" height="500" viewBox="0 0 500 500" fill="none" xmlns="http://www.w3.org/2000/svg">
<rect x="0.5" y="0.5" width="499" height="499" rx="77.5" fill="#000100" stroke="#161616"/>
<path d="M379.263 291.429C376.794 288.381 192.471 97.5803 189.682 94.672C178.79 81.8939 165.318 72.8144 150.979 68.7484C115.349 59.5195 86.6747 86.4186 86.9419 129.062C87.1139 158.353 100.381 187.099 120.618 205.6C122.898 208.214 299.232 391.156 302.341 393.925C304.81 396.973 307.41 399.448 310.199 402.356C321.09 415.134 334.563 424.214 348.901 428.28C384.531 437.509 413.394 411.043 413.127 368.399C413.276 338.969 399.5 309.93 379.263 291.429Z" fill="url(#paint0_linear_602_2470)"/>
<path d="M324.952 77.6289C350.128 56.5035 387.904 59.5417 409.229 84.9551C419.446 97.1323 424.005 112.254 423.206 126.909C423.436 129.886 427.165 366.285 426.865 369.694C428.645 388.5 421.306 407.74 405.671 420.86C380.495 441.986 342.719 438.948 321.395 413.534C311.177 401.357 306.618 386.235 307.417 371.58C307.187 368.597 303.501 131.717 303.758 128.795C301.978 109.989 309.317 90.7488 324.952 77.6289ZM88.167 77.7139C113.608 56.3661 151.341 59.8914 172.443 85.04C182.661 97.2173 187.22 112.339 186.421 126.994C186.916 129.756 190.38 366.369 190.345 369.557C192.125 388.363 184.786 407.603 169.15 420.723C143.974 441.848 106.199 438.81 84.875 413.396C74.6572 401.219 70.0982 386.098 70.8975 371.443C70.6676 368.478 66.7153 131.802 66.9727 128.88C65.1924 110.074 72.5314 90.8338 88.167 77.7139Z" fill="#00FFA6"/>
<defs>
<linearGradient id="paint0_linear_602_2470" x1="110.154" y1="100.894" x2="383.148" y2="388.779" gradientUnits="userSpaceOnUse">
<stop offset="0.0240385" stop-color="#00A86D"/>
<stop offset="0.309662" stop-color="#00FFA6" stop-opacity="0.7"/>
<stop offset="0.740385" stop-color="#00FFA6"/>
<stop offset="1" stop-color="#00A86D" stop-opacity="0.92"/>
</linearGradient>
</defs>
</svg>
