<svg width="36" height="47" viewBox="0 0 36 47" fill="none" xmlns="http://www.w3.org/2000/svg">
<path d="M30.1379 27.1043C29.9027 26.8139 12.3378 8.63175 12.072 8.35461C11.0341 7.13693 9.7503 6.27171 8.3839 5.88424C4.98857 5.00478 2.25605 7.5681 2.28152 11.6318C2.29791 14.423 3.56216 17.1623 5.49065 18.9253C5.70793 19.1745 22.5115 36.6078 22.8078 36.8716C23.043 37.1621 23.2908 37.3979 23.5566 37.6751C24.5944 38.8927 25.8783 39.758 27.2447 40.1454C30.64 41.0249 33.3905 38.5029 33.365 34.4392C33.3792 31.6347 32.0664 28.8674 30.1379 27.1043Z" fill="white" fill-opacity="0.4"/>
<path d="M24.9619 6.72998C27.361 4.71697 30.9611 5.00667 32.9932 7.42822C33.9668 8.58858 34.4013 10.0298 34.3252 11.4263C34.3471 11.7087 34.7021 34.2176 34.6738 34.562C34.8435 36.354 34.1441 38.1877 32.6543 39.438C30.2551 41.4511 26.6551 41.1615 24.623 38.7397C23.6496 37.5795 23.215 36.139 23.291 34.7427C23.2691 34.4601 22.9179 11.8845 22.9424 11.606C22.7728 9.81395 23.472 7.98017 24.9619 6.72998ZM2.39746 6.73877C4.82187 4.70445 8.41779 5.0405 10.4287 7.43701C11.4022 8.59728 11.8368 10.0377 11.7607 11.4341C11.8079 11.6954 12.1381 34.2456 12.1348 34.5493C12.3044 36.3414 11.6052 38.175 10.1152 39.4253C7.71609 41.4384 4.11607 41.1488 2.08398 38.7271C1.11028 37.5666 0.675775 36.1256 0.751953 34.729C0.730035 34.4448 0.353883 11.9185 0.37793 11.6147C0.208286 9.8228 0.907732 7.98902 2.39746 6.73877Z" fill="white"/>
</svg>
