<svg width="500" height="500" viewBox="0 0 500 500" fill="none" xmlns="http://www.w3.org/2000/svg">
<rect x="0.5" y="0.5" width="499" height="499" rx="77.5" fill="#080808" stroke="#161616"/>
<path d="M379.263 292.429C376.794 289.381 192.471 98.5803 189.682 95.672C178.79 82.8939 165.318 73.8144 150.979 69.7484C115.349 60.5195 86.6747 87.4186 86.9419 130.062C87.1139 159.353 100.381 188.099 120.618 206.6C122.898 209.214 299.232 392.156 302.341 394.925C304.81 397.973 307.41 400.448 310.199 403.356C321.09 416.134 334.563 425.214 348.901 429.28C384.531 438.509 413.394 412.043 413.127 369.399C413.276 339.969 399.5 310.93 379.263 292.429Z" fill="url(#paint0_linear_600_2468)"/>
<path d="M324.953 78.6289C350.129 57.5036 387.904 60.542 409.228 85.9551C419.446 98.1323 424.005 113.254 423.206 127.909C423.436 130.884 427.165 367.285 426.865 370.694C428.645 389.5 421.306 408.74 405.671 421.86C380.494 442.986 342.72 439.947 321.395 414.534C311.177 402.357 306.618 387.235 307.418 372.58C307.188 369.599 303.501 132.717 303.759 129.795C301.978 110.989 309.317 91.7488 324.953 78.6289ZM88.1677 78.7139C113.609 57.3662 151.341 60.8916 172.443 86.0401C182.661 98.2173 187.22 113.339 186.421 127.994C186.916 130.75 190.381 367.369 190.345 370.557C192.126 389.363 184.787 408.603 169.151 421.723C143.975 442.848 106.199 439.81 84.8747 414.397C74.657 402.219 70.0979 387.098 70.8972 372.443C70.6673 369.478 66.716 132.802 66.9733 129.88C65.1931 111.074 72.532 91.8338 88.1677 78.7139Z" fill="#09D15D"/>
<defs>
<linearGradient id="paint0_linear_600_2468" x1="110.154" y1="101.894" x2="383.148" y2="389.779" gradientUnits="userSpaceOnUse">
<stop offset="0.0240385" stop-color="#032F12"/>
<stop offset="0.309662" stop-color="#0CA741"/>
<stop offset="0.740385" stop-color="#0CA741"/>
<stop offset="1" stop-color="#032F12"/>
</linearGradient>
</defs>
</svg>
